<?xml version="1.0" encoding="iso-8859-1"?>
<!-- Generator: Adobe Illustrator 19.0.0, SVG Export Plug-In . SVG Version: 6.00 Build 0)  -->
<svg version="1.1" id="Capa_1" xmlns="http://www.w3.org/2000/svg" xmlns:xlink="http://www.w3.org/1999/xlink" x="0px" y="0px"
	 viewBox="0 0 174.081 174.081" style="enable-background:new 0 0 174.081 174.081;" xml:space="preserve">
<rect x="10.239" y="8.533" style="fill:#997843;" width="153.6" height="17.067"/>
<path d="M163.839,29.013h-153.6c-1.884,0-3.413-1.529-3.413-3.413V8.533c0-1.884,1.529-3.413,3.413-3.413h153.6
	c1.884,0,3.413,1.529,3.413,3.413V25.6C167.252,27.484,165.723,29.013,163.839,29.013z M13.652,22.187h146.773v-10.24H13.652V22.187
	z"/>
<polygon style="fill:#2ABBE9;" points="87.039,102.4 97.09,165.547 170.666,165.547 163.839,25.6 10.239,25.6 3.412,165.547 
	76.988,165.547 "/>
<path d="M170.666,168.96H97.09c-1.678,0-3.108-1.22-3.371-2.877l-6.68-41.965l-6.68,41.967c-0.263,1.657-1.693,2.877-3.371,2.877
	H3.412c-0.934,0-1.828-0.384-2.471-1.06c-0.643-0.676-0.983-1.587-0.937-2.521L6.831,25.434c0.089-1.818,1.589-3.246,3.41-3.246
	h153.6c1.821,0,3.321,1.428,3.41,3.246l6.827,139.947c0.046,0.934-0.294,1.845-0.937,2.521
	C172.494,168.576,171.599,168.96,170.666,168.96z M100.003,162.133h67.079l-6.494-133.12H13.49l-6.494,133.12h67.079l9.593-60.269
	c0.263-1.657,1.693-2.877,3.371-2.877c1.678,0,3.108,1.22,3.371,2.877L100.003,162.133z"/>
<path d="M95.572,66.62c-1.918,0-3.473-1.555-3.473-3.473V25.6c0-1.918,1.555-3.473,3.473-3.473c1.918,0,3.473,1.555,3.473,3.473
	v37.547C99.045,65.065,97.491,66.62,95.572,66.62z"/>
<path d="M78.506,42.726c-1.918,0-3.473-1.555-3.473-3.473V25.6c0-1.918,1.555-3.473,3.473-3.473c1.918,0,3.473,1.555,3.473,3.473
	v13.653C81.979,41.172,80.424,42.726,78.506,42.726z"/>
<path d="M10.239,90.453c-1.884,0-3.413-1.529-3.413-3.413c0-1.884,1.529-3.413,3.413-3.413c13.175,0,23.893-10.718,23.893-23.893
	V46.08H10.239c-1.884,0-3.413-1.529-3.413-3.413c0-1.884,1.529-3.413,3.413-3.413h27.307c1.884,0,3.413,1.529,3.413,3.413v17.067
	C40.959,76.672,27.178,90.453,10.239,90.453z"/>
<path d="M163.839,90.453c-16.939,0-30.72-13.781-30.72-30.72V42.667c0-1.884,1.529-3.413,3.413-3.413h27.307
	c1.884,0,3.413,1.529,3.413,3.413c0,1.884-1.529,3.413-3.413,3.413h-23.893v13.653c0,13.175,10.718,23.893,23.893,23.893
	c1.884,0,3.413,1.529,3.413,3.413C167.252,88.924,165.723,90.453,163.839,90.453z"/>
<g>
</g>
<g>
</g>
<g>
</g>
<g>
</g>
<g>
</g>
<g>
</g>
<g>
</g>
<g>
</g>
<g>
</g>
<g>
</g>
<g>
</g>
<g>
</g>
<g>
</g>
<g>
</g>
<g>
</g>
</svg>
